<svg xmlns="http://www.w3.org/2000/svg" version="1.1" xmlns:xlink="http://www.w3.org/1999/xlink" xmlns:svgjs="http://svgjs.com/svgjs" width="1440" height="560" preserveAspectRatio="none" viewBox="0 0 1440 560"><g mask="url(&quot;#SvgjsMask7434&quot;)" fill="none"><rect width="1440" height="560" x="0" y="0" fill="url(#SvgjsLinearGradient7435)"></rect><path d="M899.44 519.26 L1013.62 394.47L871.0540596787548 371.38905967875485z" fill="rgba(181, 127, 27, 1)"></path><rect width="347.76" height="347.76" clip-path="url(&quot;#SvgjsClipPath7436&quot;)" x="491.06" y="92.32" fill="url(#SvgjsPattern7437)" transform="rotate(273.77, 664.94, 266.2)"></rect><rect width="83%" height="50rem" clip-path="url(&quot;#SvgjsClipPath7438&quot;)" x="432.32" y="397.78" fill="url(#SvgjsPattern7439)" transform="rotate(15.22, 500.52, 465.98)"></rect><rect width="192" height="192" clip-path="url(&quot;#SvgjsClipPath7440&quot;)" x="243.05" y="189.81" fill="url(#SvgjsPattern7441)" transform="rotate(97.2, 339.05, 285.81)"></rect><rect width="144" height="144" clip-path="url(&quot;#SvgjsClipPath7442&quot;)" x="125.23" y="51.73" fill="url(#SvgjsPattern7443)" transform="rotate(348.97, 197.23, 123.73)"></rect><rect width="116.4" height="116.4" clip-path="url(&quot;#SvgjsClipPath7444&quot;)" x="871.94" y="122.64" fill="url(#SvgjsPattern7445)" transform="rotate(214.82, 930.14, 180.84)"></rect><path d="M1170.3600000000001 129.39000000000001 L1244.94 214.3L1150.5321037971212 228.96289620287882z" fill="rgba(181, 127, 27, 1)"></path><circle r="64.63991694352698" cx="383.88" cy="86.43" stroke="rgba(181, 127, 27, 1)" stroke-width="2.59"></circle><rect width="348" height="348" clip-path="url(&quot;#SvgjsClipPath7446&quot;)" x="1060.65" y="-149.73" fill="url(#SvgjsPattern7447)" transform="rotate(111.37, 1234.65, 24.27)"></rect><path d="M505.32 439.23a5.6 5.6 0 1 0-10.89-2.6 5.6 5.6 0 1 0 10.89 2.6zM489.76 435.52a5.6 5.6 0 1 0-10.89-2.6 5.6 5.6 0 1 0 10.89 2.6zM474.2 431.8a5.6 5.6 0 1 0-10.89-2.6 5.6 5.6 0 1 0 10.89 2.6zM458.64 428.09a5.6 5.6 0 1 0-10.9-2.61 5.6 5.6 0 1 0 10.9 2.61zM540.17 431.1a5.6 5.6 0 1 0-10.9-2.6 5.6 5.6 0 1 0 10.9 2.6zM524.6 427.39a5.6 5.6 0 1 0-10.89-2.6 5.6 5.6 0 1 0 10.89 2.6zM509.04 423.67a5.6 5.6 0 1 0-10.89-2.6 5.6 5.6 0 1 0 10.89 2.6zM493.48 419.96a5.6 5.6 0 1 0-10.9-2.61 5.6 5.6 0 1 0 10.9 2.61zM575.01 422.97a5.6 5.6 0 1 0-10.9-2.6 5.6 5.6 0 1 0 10.9 2.6zM559.44 419.26a5.6 5.6 0 1 0-10.89-2.6 5.6 5.6 0 1 0 10.89 2.6zM543.88 415.54a5.6 5.6 0 1 0-10.89-2.6 5.6 5.6 0 1 0 10.89 2.6zM528.32 411.83a5.6 5.6 0 1 0-10.89-2.61 5.6 5.6 0 1 0 10.89 2.61z" fill="rgba(181, 127, 27, 1)"></path><rect width="312" height="312" clip-path="url(&quot;#SvgjsClipPath7448&quot;)" x="104.96" y="-78.47" fill="url(#SvgjsPattern7449)" transform="rotate(322.34, 260.96, 77.53)"></rect><circle r="46.666666666666664" cx="413.18" cy="559.61" fill="rgba(181, 127, 27, 1)"></circle></g><defs><mask id="SvgjsMask7434"><rect width="1440" height="560" fill="#ffffff"></rect></mask><linearGradient x1="50%" y1="100%" x2="50%" y2="0%" gradientUnits="userSpaceOnUse" id="SvgjsLinearGradient7435"><stop stop-color="#0e2a47" offset="0"></stop><stop stop-color="rgba(53, 130, 231, 1)" offset="1"></stop></linearGradient><pattern x="0" y="0" width="347.76" height="9.66" patternUnits="userSpaceOnUse" id="SvgjsPattern7437"><rect width="347.76" height="4.83" x="0" y="0" fill="rgba(181, 127, 27, 1)"></rect><rect width="347.76" height="4.83" x="0" y="4.83" fill="rgba(0, 0, 0, 0)"></rect></pattern><clipPath id="SvgjsClipPath7436"><circle r="86.94" cx="664.94" cy="266.2"></circle></clipPath><pattern x="0" y="0" width="13.64" height="13.64" patternUnits="userSpaceOnUse" id="SvgjsPattern7439"><path d="M6.82 1L6.82 12.64M1 6.82L12.64 6.82" stroke="rgba(63, 81, 181, 1)" fill="none" stroke-width="3.71"></path></pattern><clipPath id="SvgjsClipPath7438"><circle r="34.1" cx="500.52" cy="465.98"></circle></clipPath><pattern x="0" y="0" width="6" height="6" patternUnits="userSpaceOnUse" id="SvgjsPattern7441"><path d="M3 1L3 5M1 3L5 3" stroke="rgba(181, 127, 27, 1)" fill="none" stroke-width="1.21"></path></pattern><clipPath id="SvgjsClipPath7440"><circle r="48" cx="339.05" cy="285.81"></circle></clipPath><pattern x="0" y="0" width="6" height="6" patternUnits="userSpaceOnUse" id="SvgjsPattern7443"><path d="M0 6L3 0L6 6" stroke="rgba(181, 127, 27, 1)" fill="none"></path></pattern><clipPath id="SvgjsClipPath7442"><circle r="36" cx="197.23" cy="123.73"></circle></clipPath><pattern x="0" y="0" width="9.7" height="9.7" patternUnits="userSpaceOnUse" id="SvgjsPattern7445"><path d="M4.85 1L4.85 8.7M1 4.85L8.7 4.85" stroke="rgba(181, 127, 27, 1)" fill="none" stroke-width="1.58"></path></pattern><clipPath id="SvgjsClipPath7444"><circle r="29.1" cx="930.14" cy="180.84"></circle></clipPath><pattern x="0" y="0" width="348" height="6" patternUnits="userSpaceOnUse" id="SvgjsPattern7447"><rect width="348" height="3" x="0" y="0" fill="rgba(63, 81, 181, 1)"></rect><rect width="348" height="3" x="0" y="3" fill="rgba(0, 0, 0, 0)"></rect></pattern><clipPath id="SvgjsClipPath7446"><circle r="87" cx="1234.65" cy="24.27"></circle></clipPath><pattern x="0" y="0" width="6" height="6" patternUnits="userSpaceOnUse" id="SvgjsPattern7449"><path d="M0 6L3 0L6 6" stroke="rgba(181, 127, 27, 1)" fill="none"></path></pattern><clipPath id="SvgjsClipPath7448"><circle r="78" cx="260.96" cy="77.53"></circle></clipPath></defs></svg>